<svg width="262" height="24" viewBox="0 0 262 24" fill="none" xmlns="http://www.w3.org/2000/svg">
<path d="M0.728 19V1.12H12.656V4H3.992V8.944H11.576V11.824H3.992V19H0.728ZM14.5265 19V0.831999H17.6705V19H14.5265ZM26.7654 19.288C25.4214 19.288 24.2454 18.984 23.2374 18.376C22.2294 17.768 21.4454 16.944 20.8854 15.904C20.3254 14.864 20.0454 13.712 20.0454 12.448C20.0454 11.136 20.3254 9.976 20.8854 8.968C21.4614 7.944 22.2374 7.136 23.2134 6.544C24.2054 5.952 25.3094 5.656 26.5254 5.656C27.5494 5.656 28.4454 5.824 29.2134 6.16C29.9974 6.496 30.6614 6.96 31.2054 7.552C31.7494 8.144 32.1654 8.824 32.4534 9.592C32.7414 10.344 32.8854 11.16 32.8854 12.04C32.8854 12.264 32.8694 12.496 32.8374 12.736C32.8214 12.976 32.7814 13.184 32.7174 13.36H22.6374V10.96H30.9414L29.4534 12.088C29.5974 11.352 29.5574 10.696 29.3334 10.12C29.1254 9.544 28.7734 9.088 28.2774 8.752C27.7974 8.416 27.2134 8.248 26.5254 8.248C25.8694 8.248 25.2854 8.416 24.7734 8.752C24.2614 9.072 23.8694 9.552 23.5974 10.192C23.3414 10.816 23.2454 11.576 23.3094 12.472C23.2454 13.272 23.3494 13.984 23.6214 14.608C23.9094 15.216 24.3254 15.688 24.8694 16.024C25.4294 16.36 26.0694 16.528 26.7894 16.528C27.5094 16.528 28.1174 16.376 28.6134 16.072C29.1254 15.768 29.5254 15.36 29.8134 14.848L32.3574 16.096C32.1014 16.72 31.7014 17.272 31.1574 17.752C30.6134 18.232 29.9654 18.608 29.2134 18.88C28.4774 19.152 27.6614 19.288 26.7654 19.288ZM33.8583 19L38.4183 12.448L33.8343 5.944H37.5303L41.1063 11.224H39.4503L43.0263 5.944H46.6983L42.1383 12.448L46.6743 19H43.0023L39.4743 13.744H41.0823L37.5543 19H33.8583ZM48.4171 19V5.944H51.5611V19H48.4171ZM48.4171 4.48V1.12H51.5611V4.48H48.4171ZM61.592 19.288C60.648 19.288 59.776 19.104 58.976 18.736C58.192 18.352 57.568 17.808 57.104 17.104L57.416 16.48V19H54.464V0.831999H57.608V8.536L57.128 7.888C57.576 7.184 58.184 6.64 58.952 6.256C59.72 5.856 60.608 5.656 61.616 5.656C62.848 5.656 63.96 5.96 64.952 6.568C65.944 7.176 66.728 7.992 67.304 9.016C67.896 10.04 68.192 11.192 68.192 12.472C68.192 13.736 67.904 14.888 67.328 15.928C66.752 16.968 65.968 17.792 64.976 18.4C63.984 18.992 62.856 19.288 61.592 19.288ZM61.232 16.408C61.952 16.408 62.592 16.24 63.152 15.904C63.712 15.568 64.144 15.104 64.448 14.512C64.768 13.92 64.928 13.24 64.928 12.472C64.928 11.704 64.768 11.032 64.448 10.456C64.144 9.864 63.712 9.4 63.152 9.064C62.592 8.712 61.952 8.536 61.232 8.536C60.544 8.536 59.92 8.704 59.36 9.04C58.816 9.376 58.384 9.848 58.064 10.456C57.76 11.048 57.608 11.72 57.608 12.472C57.608 13.24 57.76 13.92 58.064 14.512C58.384 15.104 58.816 15.568 59.36 15.904C59.92 16.24 60.544 16.408 61.232 16.408ZM70.589 19V0.831999H73.733V19H70.589ZM82.8279 19.288C81.4839 19.288 80.3079 18.984 79.2999 18.376C78.2919 17.768 77.5079 16.944 76.9479 15.904C76.3879 14.864 76.1079 13.712 76.1079 12.448C76.1079 11.136 76.3879 9.976 76.9479 8.968C77.5239 7.944 78.2999 7.136 79.2759 6.544C80.2679 5.952 81.3719 5.656 82.5879 5.656C83.6119 5.656 84.5079 5.824 85.2759 6.16C86.0599 6.496 86.7239 6.96 87.2679 7.552C87.8119 8.144 88.2279 8.824 88.5159 9.592C88.8039 10.344 88.9479 11.16 88.9479 12.04C88.9479 12.264 88.9319 12.496 88.8999 12.736C88.8839 12.976 88.8439 13.184 88.7799 13.36H78.6999V10.96H87.0039L85.5159 12.088C85.6599 11.352 85.6199 10.696 85.3959 10.12C85.1879 9.544 84.8359 9.088 84.3399 8.752C83.8599 8.416 83.2759 8.248 82.5879 8.248C81.9319 8.248 81.3479 8.416 80.8359 8.752C80.3239 9.072 79.9319 9.552 79.6599 10.192C79.4039 10.816 79.3079 11.576 79.3719 12.472C79.3079 13.272 79.4119 13.984 79.6839 14.608C79.9719 15.216 80.3879 15.688 80.9319 16.024C81.4919 16.36 82.1319 16.528 82.8519 16.528C83.5719 16.528 84.1799 16.376 84.6759 16.072C85.1879 15.768 85.5879 15.36 85.8759 14.848L88.4199 16.096C88.1639 16.72 87.7639 17.272 87.2199 17.752C86.6759 18.232 86.0279 18.608 85.2759 18.88C84.5399 19.152 83.7239 19.288 82.8279 19.288ZM94.3968 19L100.565 1.12H104.789L110.957 19H107.405L106.133 15.16H99.2208L97.9248 19H94.3968ZM100.157 12.28H105.197L102.221 3.376H103.133L100.157 12.28ZM112.683 23.8V5.944H115.635V8.536L115.347 7.888C115.795 7.184 116.403 6.64 117.171 6.256C117.939 5.856 118.827 5.656 119.835 5.656C121.067 5.656 122.179 5.96 123.171 6.568C124.163 7.176 124.947 7.992 125.523 9.016C126.115 10.04 126.411 11.192 126.411 12.472C126.411 13.736 126.123 14.888 125.547 15.928C124.971 16.968 124.187 17.792 123.195 18.4C122.203 18.992 121.075 19.288 119.811 19.288C118.867 19.288 117.995 19.104 117.195 18.736C116.411 18.352 115.787 17.808 115.323 17.104L115.827 16.48V23.8H112.683ZM119.451 16.408C120.171 16.408 120.811 16.24 121.371 15.904C121.931 15.568 122.363 15.104 122.667 14.512C122.987 13.92 123.147 13.24 123.147 12.472C123.147 11.704 122.987 11.032 122.667 10.456C122.363 9.864 121.931 9.4 121.371 9.064C120.811 8.712 120.171 8.536 119.451 8.536C118.763 8.536 118.139 8.704 117.579 9.04C117.035 9.376 116.603 9.848 116.283 10.456C115.979 11.048 115.827 11.72 115.827 12.472C115.827 13.24 115.979 13.92 116.283 14.512C116.603 15.104 117.035 15.568 117.579 15.904C118.139 16.24 118.763 16.408 119.451 16.408ZM128.808 23.8V5.944H131.76V8.536L131.472 7.888C131.92 7.184 132.528 6.64 133.296 6.256C134.064 5.856 134.952 5.656 135.96 5.656C137.192 5.656 138.304 5.96 139.296 6.568C140.288 7.176 141.072 7.992 141.648 9.016C142.24 10.04 142.536 11.192 142.536 12.472C142.536 13.736 142.248 14.888 141.672 15.928C141.096 16.968 140.312 17.792 139.32 18.4C138.328 18.992 137.2 19.288 135.936 19.288C134.992 19.288 134.12 19.104 133.32 18.736C132.536 18.352 131.912 17.808 131.448 17.104L131.952 16.48V23.8H128.808ZM135.576 16.408C136.296 16.408 136.936 16.24 137.496 15.904C138.056 15.568 138.488 15.104 138.792 14.512C139.112 13.92 139.272 13.24 139.272 12.472C139.272 11.704 139.112 11.032 138.792 10.456C138.488 9.864 138.056 9.4 137.496 9.064C136.936 8.712 136.296 8.536 135.576 8.536C134.888 8.536 134.264 8.704 133.704 9.04C133.16 9.376 132.728 9.848 132.408 10.456C132.104 11.048 131.952 11.72 131.952 12.472C131.952 13.24 132.104 13.92 132.408 14.512C132.728 15.104 133.16 15.568 133.704 15.904C134.264 16.24 134.888 16.408 135.576 16.408ZM151.317 19.288C150.037 19.288 148.869 18.992 147.813 18.4C146.773 17.808 145.941 17 145.317 15.976C144.709 14.952 144.405 13.784 144.405 12.472C144.405 11.16 144.709 9.992 145.317 8.968C145.941 7.944 146.773 7.136 147.813 6.544C148.853 5.952 150.021 5.656 151.317 5.656C152.597 5.656 153.757 5.952 154.797 6.544C155.837 7.136 156.661 7.944 157.269 8.968C157.893 9.976 158.205 11.144 158.205 12.472C158.205 13.784 157.893 14.952 157.269 15.976C156.645 17 155.813 17.808 154.773 18.4C153.733 18.992 152.581 19.288 151.317 19.288ZM151.317 16.408C152.021 16.408 152.637 16.24 153.165 15.904C153.709 15.568 154.133 15.104 154.437 14.512C154.757 13.904 154.917 13.224 154.917 12.472C154.917 11.704 154.757 11.032 154.437 10.456C154.133 9.864 153.709 9.4 153.165 9.064C152.637 8.712 152.021 8.536 151.317 8.536C150.597 8.536 149.965 8.712 149.421 9.064C148.877 9.4 148.445 9.864 148.125 10.456C147.821 11.032 147.669 11.704 147.669 12.472C147.669 13.224 147.821 13.904 148.125 14.512C148.445 15.104 148.877 15.568 149.421 15.904C149.965 16.24 150.597 16.408 151.317 16.408ZM160.589 19V5.944H163.733V19H160.589ZM160.589 4.48V1.12H163.733V4.48H160.589ZM166.636 19V5.944H169.588V8.512L169.348 8.056C169.652 7.272 170.148 6.68 170.836 6.28C171.54 5.864 172.356 5.656 173.284 5.656C174.244 5.656 175.092 5.864 175.828 6.28C176.58 6.696 177.164 7.28 177.58 8.032C177.996 8.768 178.204 9.624 178.204 10.6V19H175.06V11.344C175.06 10.768 174.948 10.272 174.724 9.856C174.5 9.44 174.188 9.12 173.788 8.896C173.404 8.656 172.948 8.536 172.42 8.536C171.908 8.536 171.452 8.656 171.052 8.896C170.652 9.12 170.34 9.44 170.116 9.856C169.892 10.272 169.78 10.768 169.78 11.344V19H166.636ZM186.814 19.144C185.342 19.144 184.198 18.744 183.382 17.944C182.582 17.128 182.182 15.984 182.182 14.512V8.752H179.926V5.944H180.166C180.806 5.944 181.302 5.776 181.654 5.44C182.006 5.104 182.182 4.616 182.182 3.976V2.968H185.326V5.944H188.326V8.752H185.326V14.344C185.326 14.776 185.398 15.144 185.542 15.448C185.702 15.752 185.942 15.984 186.262 16.144C186.598 16.304 187.022 16.384 187.534 16.384C187.646 16.384 187.774 16.376 187.918 16.36C188.078 16.344 188.23 16.328 188.374 16.312V19C188.15 19.032 187.894 19.064 187.606 19.096C187.318 19.128 187.054 19.144 186.814 19.144ZM190.777 19V5.944H193.729V8.968L193.393 8.464C193.633 7.52 194.113 6.816 194.833 6.352C195.553 5.888 196.401 5.656 197.377 5.656C198.449 5.656 199.393 5.936 200.209 6.496C201.025 7.056 201.553 7.792 201.793 8.704L200.905 8.776C201.305 7.736 201.905 6.96 202.705 6.448C203.505 5.92 204.425 5.656 205.465 5.656C206.393 5.656 207.217 5.864 207.937 6.28C208.673 6.696 209.249 7.28 209.665 8.032C210.081 8.768 210.289 9.624 210.289 10.6V19H207.145V11.344C207.145 10.768 207.041 10.272 206.833 9.856C206.625 9.44 206.337 9.12 205.969 8.896C205.601 8.656 205.153 8.536 204.625 8.536C204.129 8.536 203.689 8.656 203.305 8.896C202.921 9.12 202.625 9.44 202.417 9.856C202.209 10.272 202.105 10.768 202.105 11.344V19H198.961V11.344C198.961 10.768 198.857 10.272 198.649 9.856C198.441 9.44 198.145 9.12 197.761 8.896C197.393 8.656 196.953 8.536 196.441 8.536C195.945 8.536 195.505 8.656 195.121 8.896C194.737 9.12 194.441 9.44 194.233 9.856C194.025 10.272 193.921 10.768 193.921 11.344V19H190.777ZM219.14 19.288C217.796 19.288 216.62 18.984 215.612 18.376C214.604 17.768 213.82 16.944 213.26 15.904C212.7 14.864 212.42 13.712 212.42 12.448C212.42 11.136 212.7 9.976 213.26 8.968C213.836 7.944 214.612 7.136 215.588 6.544C216.58 5.952 217.684 5.656 218.9 5.656C219.924 5.656 220.82 5.824 221.588 6.16C222.372 6.496 223.036 6.96 223.58 7.552C224.124 8.144 224.54 8.824 224.828 9.592C225.116 10.344 225.26 11.16 225.26 12.04C225.26 12.264 225.244 12.496 225.212 12.736C225.196 12.976 225.156 13.184 225.092 13.36H215.012V10.96H223.316L221.828 12.088C221.972 11.352 221.932 10.696 221.708 10.12C221.5 9.544 221.148 9.088 220.652 8.752C220.172 8.416 219.588 8.248 218.9 8.248C218.244 8.248 217.66 8.416 217.148 8.752C216.636 9.072 216.244 9.552 215.972 10.192C215.716 10.816 215.62 11.576 215.684 12.472C215.62 13.272 215.724 13.984 215.996 14.608C216.284 15.216 216.7 15.688 217.244 16.024C217.804 16.36 218.444 16.528 219.164 16.528C219.884 16.528 220.492 16.376 220.988 16.072C221.5 15.768 221.9 15.36 222.188 14.848L224.732 16.096C224.476 16.72 224.076 17.272 223.532 17.752C222.988 18.232 222.34 18.608 221.588 18.88C220.852 19.152 220.036 19.288 219.14 19.288ZM227.644 19V5.944H230.596V8.512L230.356 8.056C230.66 7.272 231.156 6.68 231.844 6.28C232.548 5.864 233.364 5.656 234.292 5.656C235.252 5.656 236.1 5.864 236.836 6.28C237.588 6.696 238.172 7.28 238.588 8.032C239.004 8.768 239.212 9.624 239.212 10.6V19H236.068V11.344C236.068 10.768 235.956 10.272 235.732 9.856C235.508 9.44 235.196 9.12 234.796 8.896C234.412 8.656 233.956 8.536 233.428 8.536C232.916 8.536 232.46 8.656 232.06 8.896C231.66 9.12 231.348 9.44 231.124 9.856C230.9 10.272 230.788 10.768 230.788 11.344V19H227.644ZM247.822 19.144C246.35 19.144 245.206 18.744 244.39 17.944C243.59 17.128 243.19 15.984 243.19 14.512V8.752H240.934V5.944H241.174C241.814 5.944 242.31 5.776 242.662 5.44C243.014 5.104 243.19 4.616 243.19 3.976V2.968H246.334V5.944H249.334V8.752H246.334V14.344C246.334 14.776 246.406 15.144 246.55 15.448C246.71 15.752 246.95 15.984 247.27 16.144C247.606 16.304 248.03 16.384 248.542 16.384C248.654 16.384 248.782 16.376 248.926 16.36C249.086 16.344 249.238 16.328 249.382 16.312V19C249.158 19.032 248.902 19.064 248.614 19.096C248.326 19.128 248.062 19.144 247.822 19.144ZM256.752 19.288C255.36 19.288 254.144 18.96 253.104 18.304C252.08 17.632 251.376 16.728 250.992 15.592L253.344 14.464C253.68 15.2 254.144 15.776 254.736 16.192C255.344 16.608 256.016 16.816 256.752 16.816C257.328 16.816 257.784 16.688 258.12 16.432C258.456 16.176 258.624 15.84 258.624 15.424C258.624 15.168 258.552 14.96 258.408 14.8C258.28 14.624 258.096 14.48 257.856 14.368C257.632 14.24 257.384 14.136 257.112 14.056L254.976 13.456C253.872 13.136 253.032 12.648 252.456 11.992C251.896 11.336 251.616 10.56 251.616 9.664C251.616 8.864 251.816 8.168 252.216 7.576C252.632 6.968 253.2 6.496 253.92 6.16C254.656 5.824 255.496 5.656 256.44 5.656C257.672 5.656 258.76 5.952 259.704 6.544C260.648 7.136 261.32 7.968 261.72 9.04L259.32 10.168C259.096 9.576 258.72 9.104 258.192 8.752C257.664 8.4 257.072 8.224 256.416 8.224C255.888 8.224 255.472 8.344 255.168 8.584C254.864 8.824 254.712 9.136 254.712 9.52C254.712 9.76 254.776 9.968 254.904 10.144C255.032 10.32 255.208 10.464 255.432 10.576C255.672 10.688 255.944 10.792 256.248 10.888L258.336 11.512C259.408 11.832 260.232 12.312 260.808 12.952C261.4 13.592 261.696 14.376 261.696 15.304C261.696 16.088 261.488 16.784 261.072 17.392C260.656 17.984 260.08 18.448 259.344 18.784C258.608 19.12 257.744 19.288 256.752 19.288Z" fill="white"/>
</svg>
